<svg version="1.1" xmlns="http://www.w3.org/2000/svg" style="display: block" viewBox="0 0 2048 2048" preserveAspectRatio="xMidYMid meet" >
<path transform="translate(0,0)" fill="currentColor" d="M 677.537 642.445 C 685.314 619.006 708.806 580.575 723.949 561.019 C 792.567 472.478 893.436 414.689 1004.52 400.277 C 1115.89 385.392 1228.63 415.276 1318 483.377 C 1317.31 487.53 1313.74 485.826 1319.45 489.65 L 1321.05 490.747 C 1322.22 491.509 1326.34 495.291 1326.96 495.017 C 1332.12 492.746 1329.38 497.278 1335.8 497.583 C 1348.81 506.56 1358.15 518.097 1368.85 529.329 C 1403.3 565.498 1431.57 608.19 1449.1 655.087 C 1452.37 663.828 1457.75 677.743 1459.09 686.687 C 1456.42 691.341 1459.77 709.141 1461.51 715.508 C 1463.9 724.22 1464.89 732.771 1465.91 741.925 C 1469.27 746.339 1467.12 743.879 1468.76 748.645 C 1468.93 749.151 1468.88 749.704 1468.63 750.174 C 1468.43 750.516 1468.22 750.858 1468.02 751.201 L 1467.63 751.878 C 1414.87 677.82 1352.2 614.094 1271.26 571.46 C 1264.52 567.913 1257.48 564.418 1250.92 560.626 C 1250.05 559.676 1248.03 557.269 1246.83 556.428 C 1234.05 547.476 1215.44 542.107 1200.95 536.112 C 1195.48 533.848 1191.46 534.407 1186.3 534.76 C 1173.84 531.804 1160.47 527.178 1147.49 523.962 C 1110 514.613 1071.62 509.263 1033.01 508.004 C 901.346 503.713 773.407 552.1 677.537 642.445 z"/>
<path transform="translate(0,0)" fill="currentColor" d="M 632.771 1391.16 C 618.179 1387.69 585.133 1369.07 572.068 1360.34 C 485.761 1302.67 427.983 1219.86 407.821 1117.74 C 387.649 1019.26 407.959 916.794 464.175 833.449 C 513.234 759.696 589.66 708.532 676.542 691.279 C 556.518 780.867 484.934 959.003 506.318 1106.72 C 504.101 1112.75 503.809 1131.92 508.65 1134.67 C 508.982 1136.98 507.515 1149.14 511.174 1150.7 C 512.227 1151.79 512.984 1153.04 514.207 1154.31 C 515.676 1157.87 517.665 1168.25 518.744 1172.49 C 534.446 1234.31 561.398 1291.83 599.919 1342.75 C 612.293 1359.1 624.109 1371.79 632.771 1391.16 z"/>
<path transform="translate(0,0)" fill="currentColor" d="M 691.102 1391.43 C 697.15 1395.57 726.515 1425.38 734.188 1432.56 C 819.964 1512.74 945.739 1554.42 1062.66 1547.95 C 1188.11 1541 1288.19 1492.75 1372.85 1400.42 C 1365.63 1426.06 1355.05 1449.45 1341.82 1472.45 C 1329.37 1495.23 1309.19 1520.56 1291.13 1539.11 C 1223.32 1609.88 1129.96 1650.51 1031.96 1651.91 C 936.617 1652.4 844.928 1615.28 776.776 1548.61 C 764.133 1536.23 752.581 1522.43 742.241 1508.08 C 716.799 1472.77 691.502 1436.59 691.102 1391.43 z"/>
<path transform="translate(0,0)" fill="currentColor" d="M 1460.5 783.57 C 1462.12 784.094 1463.88 784.635 1465.44 785.262 C 1627.38 850.219 1697.43 1055.52 1610.93 1206.92 C 1579.17 1262.52 1536.93 1305.06 1478.17 1332 C 1456.32 1341.54 1429.91 1350.84 1406.57 1354.79 C 1459.56 1306.69 1495.67 1262.41 1524.06 1196.01 C 1569.85 1088.71 1564.88 966.495 1510.52 863.277 C 1502.69 848.444 1493.96 834.111 1484.36 820.361 C 1472.55 803.393 1468.87 804.439 1460.5 783.57 z"/>
<path transform="translate(0,0)" fill="currentColor" d="M 756.173 769.498 C 797.381 689.093 857.403 630.289 944.713 601.927 C 1021.1 576.367 1104.52 582.37 1176.46 618.602 C 1246.46 654.573 1305.59 715.836 1329.76 791.722 C 1335.31 809.163 1339.48 824.682 1340.75 843.032 C 1327.54 826.297 1301.6 794.987 1286.75 780.517 C 1225.92 721.695 1147.35 684.636 1063.27 675.111 C 963.129 662.426 862.06 690.201 782.462 752.281 C 774.503 758.634 766.796 765.296 759.359 772.251 L 756.173 769.498 z"/>
<path transform="translate(0,0)" fill="currentColor" d="M 782.891 794.332 C 783.983 795.697 779.82 798.642 778.32 800.012 C 718.367 854.55 677.693 936.541 668.481 1017.15 C 660.975 1082.83 678.78 1160.8 710.488 1218.41 C 724.447 1243.78 743.217 1268.05 761.5 1290.2 C 740.807 1282.27 729.188 1276.78 710.433 1265.45 C 710.252 1265.35 710.07 1265.25 709.889 1265.14 C 652.984 1229.61 612.613 1172.83 597.731 1107.41 C 566.906 971.634 642.168 825.471 782.891 794.332 z"/>
<path transform="translate(0,0)" fill="currentColor" d="M 808.042 1288.8 C 861.627 1341.16 908.513 1371.02 983.967 1383.82 C 1062.51 1397.2 1143.18 1379.41 1208.8 1334.22 C 1225.26 1322.71 1238.71 1305.51 1253.2 1295.87 C 1246.27 1316.6 1241.25 1327.54 1230.4 1346.08 C 1227.51 1350.69 1224.5 1355.22 1221.36 1359.66 C 1184.71 1411.43 1129.02 1446.53 1066.52 1457.27 C 1005.42 1467.23 942.868 1452.39 892.755 1416.05 C 853.998 1388.02 815.701 1336.44 808.042 1288.8 z"/>
<path transform="translate(0,0)" fill="currentColor" d="M 1328.15 866.733 C 1372.16 881.367 1406.97 914.437 1429.25 954.545 C 1454.88 1000.52 1460.79 1054.92 1445.63 1105.33 C 1431.94 1151.96 1396.45 1197.68 1353.69 1221.05 C 1341.55 1228.71 1318.11 1237.07 1304.42 1240.84 C 1383.32 1162.53 1410.76 1047.02 1371.31 942.89 C 1369.07 936.987 1366.84 931.616 1364.01 925.97 C 1358.72 915.598 1352.86 905.523 1346.46 895.79 C 1340.99 887.621 1332.6 876.66 1328.72 868.044 L 1328.15 866.733 z"/>
<path transform="translate(0,0)" fill="currentColor" d="M 1037.61 752.431 C 1131.92 747.828 1217.01 813.142 1231.1 907.656 C 1222.13 900.189 1211.21 887.021 1201.26 878.22 C 1162.18 843.62 1125.02 826.883 1074.69 815.783 C 990.604 802.674 915.912 817.907 854.722 880.72 C 861.095 859.836 876.93 835.75 891.608 819.775 C 929.716 778.303 981.854 755.333 1037.61 752.431 z"/>
<path transform="translate(0,0)" fill="currentColor" d="M 847.823 900.429 L 848.213 900.595 C 847.978 903.002 836.404 916.272 834.129 919.25 C 779.398 990.892 773.455 1090.23 824.339 1165.7 C 828.65 1172.1 836.621 1182.45 839.139 1189.38 C 826.624 1186.15 817.207 1180.86 806.533 1173.83 L 805.45 1173.06 C 771.572 1148.7 748.845 1111.8 742.332 1070.58 C 735.733 1028.65 746.317 985.841 771.69 951.82 C 788.692 928.962 819.079 904.669 847.823 900.429 z"/>
<path transform="translate(0,0)" fill="currentColor" d="M 893.192 1202.27 C 895.678 1203.53 916.181 1219.41 919.992 1222.43 C 944.405 1241.73 977.832 1252.19 1008.49 1255.83 C 1043.23 1259.95 1089.3 1252.93 1120.52 1236.73 C 1133.63 1229.93 1150.8 1216.78 1162.6 1207.43 C 1159.68 1222.12 1156.22 1229.7 1148.3 1242.31 C 1127.82 1273.05 1093.34 1295.63 1057.3 1303.32 C 987.06 1318.32 908.61 1274.37 893.192 1202.27 z"/>
<path transform="translate(0,0)" fill="currentColor" d="M 1216.23 935.701 C 1285.8 961.366 1313.87 1045.03 1276.94 1107.7 C 1265.55 1127.03 1256.38 1136.03 1238.41 1148.99 C 1228.21 1155.26 1221.07 1159.32 1209.87 1163.39 C 1213.99 1155.71 1220 1147.2 1224.57 1139.43 C 1234.39 1122.57 1241.79 1104.42 1246.54 1085.49 C 1256.76 1046.31 1254.17 1005.62 1236.48 968.556 C 1231.27 957.638 1222.94 947.332 1216.81 936.705 L 1216.23 935.701 z"/>
<path transform="translate(0,0)" fill="currentColor" d="M 1028.65 890.319 C 1060.23 887.444 1091.87 898.15 1113.45 921.657 C 1124.78 933.995 1131.38 945.467 1130.82 962.784 C 1124.96 958.767 1118.46 952.972 1112.13 948.609 C 1093.18 935.565 1077 929.125 1054.87 924.292 C 1048.41 923.324 1041.91 922.675 1035.39 922.347 C 998.215 920.807 969.22 931.421 942.217 956.408 C 957.164 917.374 987.883 896.357 1028.65 890.319 z"/>
<path transform="translate(0,0)" fill="currentColor" fill-opacity="0.988235" d="M 914.21 957.79 C 915.31 958.008 914.742 957.742 915.68 958.963 C 914.574 963.187 908.537 972.906 906.113 977.352 C 882.64 1020.41 880.196 1076.57 906.92 1119.65 C 900 1115.91 897.249 1114.08 891.331 1109.09 C 881.273 1100.94 873.074 1090.73 867.284 1079.15 C 857.019 1058.79 855.415 1035.14 862.836 1013.58 C 871.633 987.994 890.139 969.45 914.21 957.79 z"/>
<path transform="translate(0,0)" fill="currentColor" d="M 1082.21 1162.54 C 1079.4 1166.88 1060.66 1175.85 1055.16 1177.43 C 1014.46 1189.17 968.276 1169.94 955.793 1127.97 C 965.203 1136.28 976.078 1142.76 987.863 1147.08 C 1023.89 1160.44 1058.67 1155.63 1092.75 1140.22 C 1101.77 1144.27 1082.8 1157.36 1082.21 1162.54 z"/>
<path transform="translate(0,0)" fill="currentColor" d="M 1136.44 985.59 C 1140.9 987.499 1149.37 994.507 1152.91 998.017 C 1166.32 1011.47 1173.77 1029.73 1173.61 1048.72 C 1173.51 1070.91 1163.23 1087.46 1148.07 1102.54 C 1144.75 1105.02 1141.39 1107.34 1138 1109.71 C 1159.88 1067.99 1166.19 1025.79 1136.44 985.59 z"/>
<path transform="translate(0,0)" fill="currentColor" fill-opacity="0.972549" d="M 1467.63 751.878 L 1468.02 751.201 C 1468.22 750.858 1468.43 750.516 1468.63 750.174 C 1468.88 749.704 1468.93 749.151 1468.76 748.645 C 1467.12 743.879 1469.27 746.339 1465.91 741.925 C 1464.89 732.771 1463.9 724.22 1461.51 715.508 C 1459.77 709.141 1456.42 691.341 1459.09 686.687 C 1461.41 693.618 1472.7 752.042 1470.34 755.482 C 1469.21 755.881 1467.89 752.442 1467.63 751.878 z"/>
<path transform="translate(0,0)" fill="currentColor" fill-opacity="0.964706" d="M 1186.3 534.76 C 1191.46 534.407 1195.48 533.848 1200.95 536.112 C 1215.44 542.107 1234.05 547.476 1246.83 556.428 C 1248.03 557.269 1250.05 559.676 1250.92 560.626 C 1249 559.838 1246.84 559.077 1245.02 558.132 C 1226.15 548.357 1206.07 542.187 1186.3 534.76 z"/>
<path transform="translate(0,0)" fill="currentColor" fill-opacity="0.968627" d="M 506.318 1106.72 C 507.536 1114.05 507.66 1121.71 509.103 1128.99 C 510.782 1137.46 512.443 1145.86 514.207 1154.31 C 512.984 1153.04 512.227 1151.79 511.174 1150.7 C 507.515 1149.14 508.982 1136.98 508.65 1134.67 C 503.809 1131.92 504.101 1112.75 506.318 1106.72 z"/>
<path transform="translate(0,0)" fill="currentColor" fill-opacity="0.933333" d="M 1092.75 1140.22 C 1093.77 1139.38 1100.43 1135.08 1101.3 1134.74 C 1103.1 1135.21 1099.13 1143.18 1098.54 1144.16 C 1094.32 1151.21 1088.94 1157.77 1082.21 1162.54 C 1082.8 1157.36 1101.77 1144.27 1092.75 1140.22 z"/>
<path transform="translate(0,0)" fill="currentColor" fill-opacity="0.964706" d="M 1318 483.377 C 1323.53 487.972 1330.99 492.444 1335.8 497.583 C 1329.38 497.278 1332.12 492.746 1326.96 495.017 C 1326.34 495.291 1322.22 491.509 1321.05 490.747 L 1319.45 489.65 C 1313.74 485.826 1317.31 487.53 1318 483.377 z"/>
<path transform="translate(0,0)" fill="currentColor" fill-opacity="0.945098" d="M 756.173 769.498 L 759.359 772.251 C 755.03 777.099 752.189 779.476 755.551 771.212 L 756.173 769.498 z"/>
</svg>