<svg version="1.1" xmlns="http://www.w3.org/2000/svg" style="display: block" viewBox="0 0 2048 2048" preserveAspectRatio="xMidYMid meet" >
<path transform="translate(0,0)" fill="currentColor" d="M 851.614 808.226 C 873.767 806.99 903.156 807.934 926.096 807.951 L 1064.06 807.965 L 1155.2 807.867 C 1168.83 807.844 1195.33 807.138 1207.84 808.777 C 1211.25 811.68 1218.9 838.256 1221.59 845.308 C 1247.01 857.125 1259.87 860.007 1278.76 884.813 C 1302.41 915.874 1294.92 945.654 1286.17 980.348 C 1281.52 998.797 1276.86 1019.51 1274.04 1038.5 C 1269.81 1041.61 1270.06 1045.81 1269.31 1050.96 C 1261.15 1106.58 1260.18 1165.17 1272.52 1220.2 C 1276.28 1236.94 1283.81 1254.79 1289.26 1271.1 C 1291.22 1276.86 1291.9 1286.81 1294.32 1292.16 C 1298.06 1300.43 1291.63 1323.35 1294.05 1329.25 C 1286.23 1369 1241.96 1398.72 1203.08 1398.85 C 1180.58 1398.92 1158.07 1399.1 1135.57 1399.12 L 1005.15 1399.1 L 911.304 1399.11 C 893.653 1399.1 875.799 1399.54 858.204 1398.38 C 819.563 1395.83 783.775 1369.33 772.386 1331.95 C 768.977 1320.57 767.725 1308.66 768.694 1296.83 C 769.684 1284.13 775.071 1262.28 778.344 1249.34 C 798.432 1169.95 800.231 1093.89 785.326 1013.35 C 782.55 998.604 779.46 983.915 776.058 969.297 C 769.236 939.842 762.977 921.549 778.826 892.703 C 792.175 868.409 813.427 854.055 839.592 846.552 C 845.108 835.59 848.621 820.246 851.614 808.226 z"/>
<path transform="translate(0,0)" fill="currentColor" d="M 375.166 426.797 C 383.923 414.633 408.7 390.571 420.534 380.459 C 517.632 297.481 653.369 282.324 769.615 331.952 C 798.472 344.271 818.906 359.824 845.178 376.081 C 913.695 418.48 982.92 431.69 1062.41 424.468 C 1110.13 420.258 1156.27 405.294 1197.38 380.698 C 1217 369.138 1239.13 354.152 1258.7 343.814 C 1317.4 313.247 1383.58 299.993 1449.53 305.596 C 1537.58 313.053 1613.95 353.325 1670.93 420.791 C 1671.16 421.882 1670.95 422.543 1670.78 423.701 C 1641.38 406.565 1612.06 397.952 1578.55 393.721 C 1473.89 380.513 1395.78 431.31 1311.41 483.82 C 1276.1 505.798 1232.51 529.247 1194.6 545.83 C 1146.9 566.699 1092.61 576.185 1040.64 577.579 C 988.688 578.972 928.983 572.73 879.382 555.85 C 855.222 547.628 832.765 535.353 810.295 523.442 C 775.232 505.116 740.928 485.374 707.468 464.263 C 687.692 451.926 667.809 441.23 647.753 429.504 C 570.561 384.371 451.377 374.942 375.166 426.797 z"/>
<path transform="translate(0,0)" fill="currentColor" d="M 538.016 750.016 C 552.677 749.597 634.692 748.703 642.493 752.317 C 645.034 757.463 644.081 820.012 644.196 830.736 C 660.079 838.369 667.722 842.498 680.534 854.704 C 713.438 886.049 709.99 922.248 710.004 964.27 L 710.042 1050.72 L 710.799 1336.27 C 710.77 1345.02 710.67 1353.6 710.243 1362.33 C 708.397 1400.11 672.673 1395.01 645.645 1394.78 C 615.836 1394.43 586.025 1394.27 556.214 1394.3 C 486.84 1394.62 467.736 1405.19 471.759 1324.9 C 472.82 1303.72 471.726 1275.48 471.713 1253.77 L 471.675 1077.13 L 471.647 971.04 C 471.681 953.193 471.45 935.053 472.059 917.235 C 473.354 879.347 502.555 843.548 538.042 831.719 C 537.875 804.485 537.867 777.25 538.016 750.016 z"/>
<path transform="translate(0,0)" fill="currentColor" d="M 1101.91 1450.5 C 1114.33 1450.41 1189.58 1448.9 1196.6 1451.7 C 1197.77 1458.82 1197.31 1475.52 1197.29 1483.42 L 1197.02 1544.04 C 1196.91 1591.69 1196.67 1639.38 1196.87 1687.03 C 1197.41 1812.55 1078.89 1889.29 962.231 1847.85 C 894.017 1819.14 854.881 1760.82 854.931 1686.51 C 854.943 1668.37 854.748 1649.96 854.564 1631.81 C 853.963 1571.65 854.185 1511.48 855.229 1451.32 C 871.709 1449.5 917.793 1450.75 936.215 1450.74 L 1101.91 1450.5 z"/>
<path transform="translate(0,0)" fill="currentColor" d="M 1425.42 895.411 C 1399.68 890.399 1371.97 868.845 1357.14 846.989 C 1338.21 819.358 1331.2 785.277 1337.67 752.417 C 1340.26 739.6 1346.53 720.748 1353.81 710.051 C 1372.09 683.163 1374.12 672.008 1374.07 639.458 L 1373.81 583.791 C 1373.63 542.782 1372.72 515.241 1409.63 489.083 C 1444.56 464.328 1499.76 473.194 1522.16 510.056 C 1548.4 553.242 1528.62 618.693 1538.27 667.031 C 1542.39 687.962 1546.32 689.89 1556.79 707.099 C 1575.75 738.286 1582.61 767.269 1574.91 803.024 C 1568.15 834.673 1549.03 862.316 1521.81 879.82 C 1511.35 886.566 1501.73 890.474 1490.37 895.241 C 1484.24 949.068 1482.98 1006.46 1485.29 1060.55 C 1485.54 1066.42 1486.28 1071.76 1486.19 1077.73 C 1462.8 1067.18 1452.43 1066.18 1429.08 1078.45 C 1429.95 1056.4 1430.38 1034.33 1430.36 1012.27 C 1430.27 1002.14 1429.23 979.507 1429.95 970.431 C 1431.66 965.926 1432.1 935.648 1429.21 934.325 L 1428.22 933.837 C 1427.25 921.203 1426.07 908.015 1425.42 895.411 z"/>
<path transform="translate(0,0)" fill="currentColor" d="M 849.565 627.393 C 858.422 626.154 893.356 626.828 903.534 626.859 L 1008.89 627.05 L 1143.82 626.859 C 1167.55 626.779 1194.73 625.627 1217.77 627.384 C 1265.2 631.003 1290.92 693.69 1262.36 730.881 C 1248.53 748.891 1236.14 754.347 1214.62 757.756 C 1193.78 759.17 1161.55 758.208 1139.85 758.163 L 1007.56 758.064 L 903.463 758.171 C 886.495 758.2 864.824 759.351 848.169 757.596 C 770.689 749.434 770.412 635.472 849.565 627.393 z"/>
<path transform="translate(0,0)" fill="currentColor" d="M 1455.28 1118.21 C 1474.66 1119.29 1480.4 1127.17 1487.42 1143.9 C 1498.26 1168.15 1506.68 1195.95 1518.41 1219.57 C 1532.58 1248.11 1546.53 1259.6 1550.11 1292.76 C 1552.71 1318.35 1545.04 1343.92 1528.8 1363.87 C 1508.94 1388.05 1487.42 1394.81 1457.9 1397.84 C 1437.84 1397.98 1418.19 1392.16 1401.45 1381.1 C 1380.63 1367.06 1367.16 1344.47 1362.63 1319.97 C 1359.74 1304.6 1360.61 1288.76 1365.16 1273.8 C 1369.98 1258.17 1379.31 1246.07 1387.59 1232.28 C 1391.56 1225.66 1395.38 1217.56 1398.67 1210.47 C 1405.14 1196.24 1411.18 1181.82 1416.81 1167.24 C 1425.76 1144.58 1428.57 1123.05 1455.28 1118.21 z"/>
<path transform="translate(0,0)" fill="currentColor" d="M 585.619 476.369 C 632.606 471.351 672.836 515.347 668.701 560.262 C 666.993 578.817 671.37 687.79 666.57 694.88 C 658.86 696.855 611.078 696.029 600.5 696.005 C 572.078 696.099 543.655 695.854 515.239 695.27 C 515.183 694.872 514.914 693.203 514.905 692.888 C 513.62 649.424 515.659 605.775 514.694 562.253 C 514.517 554.235 514.889 545.519 516.316 537.84 C 518.463 526.015 523.507 514.907 530.998 505.508 C 544.692 488.416 564.011 478.649 585.619 476.369 z"/>
<path transform="translate(0,0)" fill="currentColor" d="M 1327.54 1387.77 C 1329.36 1393.37 1328.3 1563.24 1327.71 1580.99 C 1327.3 1591.81 1326.3 1602.61 1324.71 1613.32 C 1316.08 1672.44 1284.47 1721.92 1236.8 1757.42 L 1235.85 1756.56 C 1238.41 1748.13 1243.64 1732.06 1244.61 1723.86 C 1248.71 1689.36 1247.12 1650.79 1247.04 1615.76 L 1246.8 1443.72 C 1289.48 1423.06 1292.77 1421.77 1327.54 1387.77 z"/>
<path transform="translate(0,0)" fill="currentColor" d="M 754.554 1408.23 C 762.061 1413.93 768.477 1420 776.362 1425.39 C 784.227 1430.75 797.742 1434.75 803.907 1441.14 L 804.026 1619.05 C 803.964 1667.46 799.386 1712.05 815.581 1758.55 L 798.94 1745.31 C 723.393 1677.86 721.14 1606.67 723.307 1513.54 C 723.834 1490.9 720.935 1463.1 723.839 1441.22 C 739.16 1429.96 743.819 1424.16 754.554 1408.23 z"/>
<path transform="translate(0,0)" fill="currentColor" d="M 1508.46 437.783 C 1511.96 436.893 1515.48 436.092 1519.02 435.381 C 1567.16 425.834 1617.12 436.101 1657.6 463.86 C 1712.06 501.53 1739.88 557.561 1751.57 621.144 L 1749.15 624.247 C 1723.12 568.564 1658.28 539.643 1615.51 593.379 C 1603.4 608.606 1599.12 620.665 1589.98 637.159 C 1593.5 557.871 1596.71 473.632 1508.46 437.783 z"/>
<path transform="translate(0,0)" fill="currentColor" d="M 299.498 620.661 C 312.938 555.3 340.359 499.596 397.918 461.916 C 439.169 434.668 489.766 425.468 537.969 436.449 C 538.908 436.65 539.842 436.873 540.77 437.119 C 502.489 456.76 479.181 479.01 465.421 521.196 C 454.718 554.008 459.871 594.899 459.967 629.222 L 457.375 631.372 C 422.342 542.657 344.795 543.6 300.687 626.428 C 300.302 624.503 299.906 622.581 299.498 620.661 z"/>
<path transform="translate(0,0)" fill="currentColor" fill-opacity="0.901961" d="M 1294.05 1329.25 C 1291.63 1323.35 1298.06 1300.43 1294.32 1292.16 C 1291.9 1286.81 1291.22 1276.86 1289.26 1271.1 C 1283.81 1254.79 1276.28 1236.94 1272.52 1220.2 C 1260.18 1165.17 1261.15 1106.58 1269.31 1050.96 C 1270.06 1045.81 1269.81 1041.61 1274.04 1038.5 C 1261.81 1093.73 1262.82 1173.01 1277.62 1227.7 C 1285.53 1256.96 1306.98 1298.33 1294.05 1329.25 z"/>
<path transform="translate(0,0)" fill="currentColor" fill-opacity="0.972549" d="M 1428.22 933.837 L 1429.21 934.325 C 1432.1 935.648 1431.66 965.926 1429.95 970.431 C 1429 963.857 1428.31 941.844 1428.22 933.837 z"/>
<path transform="translate(0,0)" fill="currentColor" fill-opacity="0.882353" d="M 1751.57 621.144 C 1752.05 622.585 1752.95 627.27 1751.76 628.3 C 1750.66 628.238 1749.5 624.943 1749.15 624.247 L 1751.57 621.144 z"/>
<path transform="translate(0,0)" fill="currentColor" fill-opacity="0.768627" d="M 1670.93 420.791 C 1671.75 421.801 1675.09 425.199 1675.21 426.343 C 1674.12 427.008 1671.68 424.524 1670.78 423.701 C 1670.95 422.543 1671.16 421.882 1670.93 420.791 z"/>
<path transform="translate(0,0)" fill="currentColor" fill-opacity="0.898039" d="M 300.687 626.428 C 300.35 627.199 300.174 628.189 299.488 628.724 C 299.226 628.739 299.353 628.777 299.115 628.582 C 298.52 626.908 299.286 622.424 299.498 620.661 C 299.906 622.581 300.302 624.503 300.687 626.428 z"/>
<path transform="translate(0,0)" fill="currentColor" fill-opacity="0.92549" d="M 457.375 631.372 L 459.967 629.222 L 460.009 632.936 C 460.015 633.733 460.017 634.448 459.683 635.162 L 459.507 635.269 C 458.554 634.703 457.786 632.269 457.375 631.372 z"/>
</svg>